{
  "accessors": [
    {
      "bufferView": 2,
      "componentType": 5126,
      "count": 65532,
      "max": [
        14.91342830657959,
        0.9698600172996521,
        12.9570894241333
      ],
      "min": [
        -12.017011642456055,
        -18.880577087402344,
        -7.174345970153809
      ],
      "type": "VEC3"
    },
    {
      "bufferView": 2,
      "byteOffset": 786384,
      "componentType": 5126,
      "count": 65532,
      "max": [
        0.9999880790710449,
        1.0,
        0.9999972581863403
      ],
      "min": [
        -0.9999860525131226,
        -0.9999967813491821,
        -0.9999749660491943
      ],
      "type": "VEC3"
    },
    {
      "bufferView": 1,
      "componentType": 5126,
      "count": 65532,
      "max": [
        0.9996970295906067,
        0.987060010433197
      ],
      "min": [
        0.00024399999529123306,
        0.00025599999935366213
      ],
      "type": "VEC2"
    },
    {
      "bufferView": 0,
      "componentType": 5125,
      "count": 257550,
      "type": "SCALAR"
    },
    {
      "bufferView": 2,
      "byteOffset": 1572768,
      "componentType": 5126,
      "count": 65532,
      "max": [
        14.815332412719727,
        -7.096765995025635,
        12.714821815490723
      ],
      "min": [
        -17.163578033447266,
        -19.034875869750977,
        -3.4560089111328125
      ],
      "type": "VEC3"
    },
    {
      "bufferView": 2,
      "byteOffset": 2359152,
      "componentType": 5126,
      "count": 65532,
      "max": [
        0.9999880194664001,
        0.9999758005142212,
        0.9999876022338867
      ],
      "min": [
        -0.9998739957809448,
        -0.9999858736991882,
        -0.9999743700027466
      ],
      "type": "VEC3"
    },
    {
      "bufferView": 1,
      "byteOffset": 524256,
      "componentType": 5126,
      "count": 65532,
      "max": [
        0.9997190237045288,
        0.9997559785842896
      ],
      "min": [
        0.00024399999529123306,
        0.0002579999854788184
      ],
      "type": "VEC2"
    },
    {
      "bufferView": 0,
      "byteOffset": 1030200,
      "componentType": 5125,
      "count": 219306,
      "type": "SCALAR"
    },
    {
      "bufferView": 2,
      "byteOffset": 3145536,
      "componentType": 5126,
      "count": 65532,
      "max": [
        -0.16988100111484528,
        -8.964926719665527,
        11.205926895141602
      ],
      "min": [
        -16.885347366333008,
        -18.971956253051758,
        -3.1157479286193848
      ],
      "type": "VEC3"
    },
    {
      "bufferView": 2,
      "byteOffset": 3931920,
      "componentType": 5126,
      "count": 65532,
      "max": [
        0.9999547004699707,
        0.9999890327453613,
        0.9999972581863403
      ],
      "min": [
        -0.9999836087226868,
        -0.9999829530715942,
        -0.9999243021011353
      ],
      "type": "VEC3"
    },
    {
      "bufferView": 1,
      "byteOffset": 1048512,
      "componentType": 5126,
      "count": 65532,
      "max": [
        0.999754011631012,
        0.9851070046424866
      ],
      "min": [
        0.00024399999529123306,
        0.0002530000056140125
      ],
      "type": "VEC2"
    },
    {
      "bufferView": 0,
      "byteOffset": 1907424,
      "componentType": 5125,
      "count": 241065,
      "type": "SCALAR"
    },
    {
      "bufferView": 2,
      "byteOffset": 4718304,
      "componentType": 5126,
      "count": 65532,
      "max": [
        9.45187759399414,
        1.0397549867630005,
        11.205926895141602
      ],
      "min": [
        -16.729549407958984,
        -19.040924072265625,
        -3.6702990531921387
      ],
      "type": "VEC3"
    },
    {
      "bufferView": 2,
      "byteOffset": 5504688,
      "componentType": 5126,
      "count": 65532,
      "max": [
        0.9999392032623291,
        0.9999933838844299,
        0.9999969601631165
      ],
      "min": [
        -0.9999969601631165,
        -0.9999966621398926,
        -0.9999892711639404
      ],
      "type": "VEC3"
    },
    {
      "bufferView": 1,
      "byteOffset": 1572768,
      "componentType": 5126,
      "count": 65532,
      "max": [
        0.9997419714927673,
        0.9880369901657104
      ],
      "min": [
        0.00024399999529123306,
        0.00025400001322850585
      ],
      "type": "VEC2"
    },
    {
      "bufferView": 0,
      "byteOffset": 2871684,
      "componentType": 5125,
      "count": 236478,
      "type": "SCALAR"
    },
    {
      "bufferView": 2,
      "byteOffset": 6291072,
      "componentType": 5126,
      "count": 65532,
      "max": [
        10.861599922180176,
        1.0237879753112793,
        7.7837958335876465
      ],
      "min": [
        -16.41939353942871,
        -19.46289825439453,
        -13.844362258911133
      ],
      "type": "VEC3"
    },
    {
      "bufferView": 2,
      "byteOffset": 7077456,
      "componentType": 5126,
      "count": 65532,
      "max": [
        0.9999856352806091,
        0.9999990463256836,
        0.999997615814209
      ],
      "min": [
        -0.9999815225601196,
        -0.9999964237213135,
        -0.9999554753303528
      ],
      "type": "VEC3"
    },
    {
      "bufferView": 1,
      "byteOffset": 2097024,
      "componentType": 5126,
      "count": 65532,
      "max": [
        0.9997109770774841,
        0.9890140295028687
      ],
      "min": [
        0.00024399999529123306,
        0.0002730000123847276
      ],
      "type": "VEC2"
    },
    {
      "bufferView": 0,
      "byteOffset": 3817596,
      "componentType": 5125,
      "count": 241380,
      "type": "SCALAR"
    },
    {
      "bufferView": 2,
      "byteOffset": 7863840,
      "componentType": 5126,
      "count": 65532,
      "max": [
        16.182064056396484,
        -0.103582002222538,
        3.7570929527282715
      ],
      "min": [
        -15.315720558166504,
        -19.50802230834961,
        -13.844362258911133
      ],
      "type": "VEC3"
    },
    {
      "bufferView": 2,
      "byteOffset": 8650224,
      "componentType": 5126,
      "count": 65532,
      "max": [
        0.9999960064888,
        0.9999932646751404,
        0.9998601078987122
      ],
      "min": [
        -0.9999997615814209,
        -0.9999945163726807,
        -0.9999868273735046
      ],
      "type": "VEC3"
    },
    {
      "bufferView": 1,
      "byteOffset": 2621280,
      "componentType": 5126,
      "count": 65532,
      "max": [
        0.9997479915618896,
        0.9987789988517761
      ],
      "min": [
        0.00024399999529123306,
        0.0002460000105202198
      ],
      "type": "VEC2"
    },
    {
      "bufferView": 0,
      "byteOffset": 4783116,
      "componentType": 5125,
      "count": 242820,
      "type": "SCALAR"
    },
    {
      "bufferView": 2,
      "byteOffset": 9436608,
      "componentType": 5126,
      "count": 65532,
      "max": [
        16.43568229675293,
        -0.8985350131988525,
        2.4080469608306885
      ],
      "min": [
        -14.537495613098145,
        -16.282310485839844,
        -8.737997055053711
      ],
      "type": "VEC3"
    },
    {
      "bufferView": 2,
      "byteOffset": 10222992,
      "componentType": 5126,
      "count": 65532,
      "max": [
        0.9999889731407166,
        0.9999911785125732,
        0.9999451041221619
      ],
      "min": [
        -0.9999473094940186,
        -0.9999998807907104,
        -0.9999988079071045
      ],
      "type": "VEC3"
    },
    {
      "bufferView": 1,
      "byteOffset": 3145536,
      "componentType": 5126,
      "count": 65532,
      "max": [
        0.999750018119812,
        0.9978029727935791
      ],
      "min": [
        0.00024399999529123306,
        0.0002460000105202198
      ],
      "type": "VEC2"
    },
    {
      "bufferView": 0,
      "byteOffset": 5754396,
      "componentType": 5125,
      "count": 229311,
      "type": "SCALAR"
    },
    {
      "bufferView": 2,
      "byteOffset": 11009376,
      "componentType": 5126,
      "count": 65532,
      "max": [
        16.288131713867188,
        1.0393699407577515,
        0.28205999732017517
      ],
      "min": [
        -17.27018165588379,
        -13.245723724365234,
        -8.923843383789063
      ],
      "type": "VEC3"
    },
    {
      "bufferView": 2,
      "byteOffset": 11795760,
      "componentType": 5126,
      "count": 65532,
      "max": [
        0.9999797344207764,
        0.9999914169311523,
        0.9993744492530823
      ],
      "min": [
        -0.999999463558197,
        -0.9999966621398926,
        -0.9999995827674866
      ],
      "type": "VEC3"
    },
    {
      "bufferView": 1,
      "byteOffset": 3669792,
      "componentType": 5126,
      "count": 65532,
      "max": [
        0.9997220039367676,
        0.9958490133285522
      ],
      "min": [
        0.00024399999529123306,
        0.0002469999890308827
      ],
      "type": "VEC2"
    },
    {
      "bufferView": 0,
      "byteOffset": 6671640,
      "componentType": 5125,
      "count": 221655,
      "type": "SCALAR"
    },
    {
      "bufferView": 2,
      "byteOffset": 12582144,
      "componentType": 5126,
      "count": 65532,
      "max": [
        16.233766555786133,
        -1.0864830017089844,
        2.0289220809936523
      ],
      "min": [
        -13.912005424499512,
        -19.40142059326172,
        -12.845562934875488
      ],
      "type": "VEC3"
    },
    {
      "bufferView": 2,
      "byteOffset": 13368528,
      "componentType": 5126,
      "count": 65532,
      "max": [
        0.9999948740005493,
        0.9999794960021973,
        0.9999858140945435
      ],
      "min": [
        -0.9999366998672485,
        -0.9999989867210388,
        -0.9999913573265076
      ],
      "type": "VEC3"
    },
    {
      "bufferView": 1,
      "byteOffset": 4194048,
      "componentType": 5126,
      "count": 65532,
      "max": [
        0.9997379779815674,
        0.9851070046424866
      ],
      "min": [
        0.00024399999529123306,
        0.00024900000425986946
      ],
      "type": "VEC2"
    },
    {
      "bufferView": 0,
      "byteOffset": 7558260,
      "componentType": 5125,
      "count": 220719,
      "type": "SCALAR"
    },
    {
      "bufferView": 2,
      "byteOffset": 14154912,
      "componentType": 5126,
      "count": 65532,
      "max": [
        16.43568229675293,
        -1.1104979515075684,
        7.327655792236328
      ],
      "min": [
        -1.1999189853668213,
        -19.46289825439453,
        -12.765735626220703
      ],
      "type": "VEC3"
    },
    {
      "bufferView": 2,
      "byteOffset": 14941296,
      "componentType": 5126,
      "count": 65532,
      "max": [
        0.9999998807907104,
        0.999947726726532,
        0.9999881386756897
      ],
      "min": [
        -0.999896228313446,
        -0.9999980330467224,
        -0.9999463558197021
      ],
      "type": "VEC3"
    },
    {
      "bufferView": 1,
      "byteOffset": 4718304,
      "componentType": 5126,
      "count": 65532,
      "max": [
        0.9997239708900452,
        0.9955430030822754
      ],
      "min": [
        0.00024399999529123306,
        0.0002469999890308827
      ],
      "type": "VEC2"
    },
    {
      "bufferView": 0,
      "byteOffset": 8441136,
      "componentType": 5125,
      "count": 206595,
      "type": "SCALAR"
    },
    {
      "bufferView": 2,
      "byteOffset": 15727680,
      "componentType": 5126,
      "count": 40087,
      "max": [
        15.97454833984375,
        1.040863037109375,
        7.310569763183594
      ],
      "min": [
        -17.172752380371094,
        -10.567566871643066,
        -0.7928159832954407
      ],
      "type": "VEC3"
    },
    {
      "bufferView": 2,
      "byteOffset": 16208724,
      "componentType": 5126,
      "count": 40087,
      "max": [
        0.9999601244926453,
        0.9999488592147827,
        0.999996542930603
      ],
      "min": [
        -0.9999754428863525,
        -0.9999781250953674,
        -0.9999409914016724
      ],
      "type": "VEC3"
    },
    {
      "bufferView": 1,
      "byteOffset": 5242560,
      "componentType": 5126,
      "count": 40087,
      "max": [
        0.9997550249099731,
        0.9909669756889343
      ],
      "min": [
        0.00024399999529123306,
        0.0002530000056140125
      ],
      "type": "VEC2"
    },
    {
      "bufferView": 0,
      "byteOffset": 9267516,
      "componentType": 5125,
      "count": 104391,
      "type": "SCALAR"
    }
  ],
  "asset": {
    "extras": {
      "author": "artfletch (https://sketchfab.com/artfletch)",
      "license": "CC-BY-4.0 (http://creativecommons.org/licenses/by/4.0/)",
      "source": "https://sketchfab.com/3d-models/merlin-engine-6540cdf033a643ac8eff83479b68c721",
      "title": "Merlin Engine"
    },
    "generator": "Sketchfab-12.67.0",
    "version": "2.0"
  },
  "bufferViews": [
    {
      "buffer": 0,
      "byteLength": 9685080,
      "name": "floatBufferViews",
      "target": 34963
    },
    {
      "buffer": 0,
      "byteLength": 5563256,
      "byteOffset": 9685080,
      "byteStride": 8,
      "name": "floatBufferViews",
      "target": 34962
    },
    {
      "buffer": 0,
      "byteLength": 16689768,
      "byteOffset": 15248336,
      "byteStride": 12,
      "name": "floatBufferViews",
      "target": 34962
    }
  ],
  "buffers": [
    {
      "byteLength": 31938104,
      "uri": "scene.bin"
    }
  ],
  "images": [
    {
      "uri": "textures/BOBBMerlinEngine01_Model_4_BOBBMerlinEngine01_Model_4_u1_v1_baseColor.jpeg"
    },
    {
      "uri": "textures/BOBBMerlinEngine01_Model_4_BOBBMerlinEngine01_Model_4_u1_v1_metallicRoughness.png"
    }
  ],
  "materials": [
    {
      "doubleSided": true,
      "name": "BOBBMerlinEngine01_Model_4_BOBBMerlinEngine01_Model_4_u1_v1",
      "pbrMetallicRoughness": {
        "baseColorTexture": {
          "index": 0
        },
        "metallicFactor": 0.4639272952947493,
        "metallicRoughnessTexture": {
          "index": 1
        }
      }
    }
  ],
  "meshes": [
    {
      "name": "Object_0",
      "primitives": [
        {
          "attributes": {
            "NORMAL": 1,
            "POSITION": 0,
            "TEXCOORD_0": 2
          },
          "indices": 3,
          "material": 0,
          "mode": 4
        }
      ]
    },
    {
      "name": "Object_1",
      "primitives": [
        {
          "attributes": {
            "NORMAL": 5,
            "POSITION": 4,
            "TEXCOORD_0": 6
          },
          "indices": 7,
          "material": 0,
          "mode": 4
        }
      ]
    },
    {
      "name": "Object_2",
      "primitives": [
        {
          "attributes": {
            "NORMAL": 9,
            "POSITION": 8,
            "TEXCOORD_0": 10
          },
          "indices": 11,
          "material": 0,
          "mode": 4
        }
      ]
    },
    {
      "name": "Object_3",
      "primitives": [
        {
          "attributes": {
            "NORMAL": 13,
            "POSITION": 12,
            "TEXCOORD_0": 14
          },
          "indices": 15,
          "material": 0,
          "mode": 4
        }
      ]
    },
    {
      "name": "Object_4",
      "primitives": [
        {
          "attributes": {
            "NORMAL": 17,
            "POSITION": 16,
            "TEXCOORD_0": 18
          },
          "indices": 19,
          "material": 0,
          "mode": 4
        }
      ]
    },
    {
      "name": "Object_5",
      "primitives": [
        {
          "attributes": {
            "NORMAL": 21,
            "POSITION": 20,
            "TEXCOORD_0": 22
          },
          "indices": 23,
          "material": 0,
          "mode": 4
        }
      ]
    },
    {
      "name": "Object_6",
      "primitives": [
        {
          "attributes": {
            "NORMAL": 25,
            "POSITION": 24,
            "TEXCOORD_0": 26
          },
          "indices": 27,
          "material": 0,
          "mode": 4
        }
      ]
    },
    {
      "name": "Object_7",
      "primitives": [
        {
          "attributes": {
            "NORMAL": 29,
            "POSITION": 28,
            "TEXCOORD_0": 30
          },
          "indices": 31,
          "material": 0,
          "mode": 4
        }
      ]
    },
    {
      "name": "Object_8",
      "primitives": [
        {
          "attributes": {
            "NORMAL": 33,
            "POSITION": 32,
            "TEXCOORD_0": 34
          },
          "indices": 35,
          "material": 0,
          "mode": 4
        }
      ]
    },
    {
      "name": "Object_9",
      "primitives": [
        {
          "attributes": {
            "NORMAL": 37,
            "POSITION": 36,
            "TEXCOORD_0": 38
          },
          "indices": 39,
          "material": 0,
          "mode": 4
        }
      ]
    },
    {
      "name": "Object_10",
      "primitives": [
        {
          "attributes": {
            "NORMAL": 41,
            "POSITION": 40,
            "TEXCOORD_0": 42
          },
          "indices": 43,
          "material": 0,
          "mode": 4
        }
      ]
    }
  ],
  "nodes": [
    {
      "children": [
        1
      ],
      "matrix": [
        1.0,
        0.0,
        0.0,
        0.0,
        0.0,
        -1.0,
        -4.440892098500626e-16,
        0.0,
        0.0,
        4.440892098500626e-16,
        -1.0,
        0.0,
        0.0,
        -9.677243232727053,
        8.789882659912108,
        1.0
      ],
      "name": "Sketchfab_model"
    },
    {
      "children": [
        2,
        3,
        4,
        5,
        6,
        7,
        8,
        9,
        10,
        11,
        12
      ],
      "name": "BOBBMerlinEngine02.obj.cleaner.materialmerger.gles"
    },
    {
      "mesh": 0,
      "name": "Object_2"
    },
    {
      "mesh": 1,
      "name": "Object_3"
    },
    {
      "mesh": 2,
      "name": "Object_4"
    },
    {
      "mesh": 3,
      "name": "Object_5"
    },
    {
      "mesh": 4,
      "name": "Object_6"
    },
    {
      "mesh": 5,
      "name": "Object_7"
    },
    {
      "mesh": 6,
      "name": "Object_8"
    },
    {
      "mesh": 7,
      "name": "Object_9"
    },
    {
      "mesh": 8,
      "name": "Object_10"
    },
    {
      "mesh": 9,
      "name": "Object_11"
    },
    {
      "mesh": 10,
      "name": "Object_12"
    }
  ],
  "samplers": [
    {
      "magFilter": 9729,
      "minFilter": 9987,
      "wrapS": 10497,
      "wrapT": 10497
    }
  ],
  "scene": 0,
  "scenes": [
    {
      "name": "Sketchfab_Scene",
      "nodes": [
        0
      ]
    }
  ],
  "textures": [
    {
      "sampler": 0,
      "source": 0
    },
    {
      "sampler": 0,
      "source": 1
    }
  ]
}
