<svg xmlns="http://www.w3.org/2000/svg" version="1.1" xmlns:xlink="http://www.w3.org/1999/xlink" xmlns:svgjs="http://svgjs.dev/svgjs" width="1000" height="623" viewBox="0 0 1000 623"><g transform="matrix(1,0,0,1,-0.6060606060606233,0.2522267206477409)"><svg viewBox="0 0 396 247" data-background-color="#ffffff" preserveAspectRatio="xMidYMid meet" height="623" width="1000" xmlns="http://www.w3.org/2000/svg" xmlns:xlink="http://www.w3.org/1999/xlink"><g id="tight-bounds" transform="matrix(1,0,0,1,0.2400000000000091,-0.09999999999999432)"><svg viewBox="0 0 395.52 247.2" height="247.2" width="395.52"><g><svg></svg></g><g><svg viewBox="0 0 395.52 247.2" height="247.2" width="395.52"><g transform="matrix(1,0,0,1,93.1536403053435,47.215199999999996)"><svg viewBox="0 0 209.21271938931298 152.7696" height="152.7696" width="209.21271938931298"><g><svg viewBox="0 0 209.21271938931298 152.7696" height="152.7696" width="209.21271938931298"><g><svg viewBox="0 0 209.21271938931298 152.7696" height="152.7696" width="209.21271938931298"><g><svg viewBox="0 0 209.21271938931298 152.7696" height="152.7696" width="209.21271938931298"><g id="textblocktransform"><svg viewBox="0 0 209.21271938931298 152.7696" height="152.7696" width="209.21271938931298" id="textblock"><g><svg viewBox="0 0 209.21271938931298 152.7696" height="152.7696" width="209.21271938931298"><g transform="matrix(1,0,0,1,0,0)"><svg width="209.21271938931298" viewBox="3.6 -32.75 44.85 32.75" height="152.7696" data-palette-color="#acf0ee"><path d="M21.25 0L3.6 0 3.6-4.65 10.05-4.65 10.05-28.1 3.6-28.1 3.6-32.75 21.25-32.75 21.25-28.1 15.25-28.1 15.25-4.65 21.25-4.65 21.25 0ZM31.85 0L26.6 0 26.6-32.75 31.85-32.75 31.85-18.65 43.2-18.65 43.2-32.75 48.45-32.75 48.45 0 43.2 0 43.2-13.95 31.85-13.95 31.85 0Z" opacity="1" transform="matrix(1,0,0,1,0,0)" fill="#ffffff" class="undefined-text-0" data-fill-palette-color="primary" id="text-0"></path></svg></g></svg></g></svg></g></svg></g></svg></g></svg></g></svg></g><path d="M120.065 41.215L120.065 0 367.265 0 367.265 247.2 120.065 247.2 120.065 205.985 133.842 205.985 133.842 233.423 353.488 233.423 353.488 13.777 133.842 13.777 133.842 41.215Z" fill="#ffffff" stroke="transparent" data-fill-palette-color="primary"></path></svg></g><defs></defs></svg><rect width="395.52" height="247.2" fill="none" stroke="none" visibility="hidden"></rect></g></svg></g></svg>